<svg width="114" height="41" viewBox="0 0 114 41" fill="none" xmlns="http://www.w3.org/2000/svg">
<path d="M32.2055 38.5141C31.0751 37.4884 29.662 36.8195 28.0608 36.9129L31.0751 33.7221C33.2403 34.1927 31.9218 37.3004 32.2055 38.5255M46.9941 38.8081L44.4528 37.395C44.2647 34.9449 44.4528 31.5546 44.5462 29.199L47.1844 30.7067L46.9941 38.8081ZM33.336 30.7078C32.4893 31.7335 31.6403 32.497 30.6055 33.534C30.1349 33.534 29.8511 32.9699 29.3793 32.6873L29.4739 28.9187C30.6978 29.5774 31.8283 30.5198 33.3485 30.7078H33.336ZM39.1764 28.2577L39.0819 25.3369C37.7633 26.3626 36.5371 28.0685 35.1252 29.1056C33.524 28.9175 32.111 28.0799 30.7924 27.2207C29.662 28.2463 28.4369 29.1056 27.0238 29.7654C27.1184 31.1785 26.8358 32.3067 26.9303 33.7221L28.9087 35.3232C27.8831 36.7363 25.801 37.8679 25.989 39.6571C25.989 40.1289 25.989 40.7967 26.4597 40.7967C26.1771 40.2326 25.989 39.0075 27.0238 38.7249C28.5315 38.3488 29.662 39.2901 30.7924 40.138C32.0164 39.1944 33.2403 38.2531 34.5611 37.5921L34.6545 33.4486L32.7708 32.0355L35.6916 29.2093C35.9742 29.2093 36.4437 29.0212 36.634 29.3039L36.5383 36.9335L36.0676 38.0639C37.0089 38.7249 38.1417 39.7597 39.1764 40.2314L41.6266 38.0639L45.5012 40.4172C46.8197 39.1944 48.0459 38.252 49.5525 37.591C49.3635 34.9258 49.3635 32.2506 49.5525 29.5853C48.422 28.8332 47.1969 28.1722 45.9718 27.607C44.7491 28.7375 43.4305 29.5853 42.0175 30.2452L41.924 37.3107C41.3588 37.5921 41.263 38.3363 40.5109 38.5346C39.8499 38.44 39.2858 37.8759 38.9086 37.3107L39.1913 28.9278C39.8522 29.0224 40.887 29.0224 41.6414 28.9278C41.6414 28.7386 41.736 28.4571 41.5479 28.3626L39.1764 28.2577ZM10.6353 31.4486L10.5407 37.6651C11.2928 38.6907 12.143 37.7608 12.9908 37.477L13.0854 32.9563C12.4244 32.2953 11.5789 31.7312 10.6353 31.4474V31.4486ZM77.6093 32.9574C78.3614 34.3705 78.5517 36.4423 77.6093 37.8554C76.6669 38.7978 75.2549 39.1739 73.8407 39.0793L73.6515 30.8833C75.2538 30.2224 76.8423 31.542 77.6082 32.9574H77.6093ZM69.6036 35.6879C69.4145 36.1585 69.4145 36.7135 68.9427 37.0075C67.247 35.4064 66.7752 32.9585 67.0578 30.8856C67.247 29.566 68.0834 27.8714 69.5079 27.011L69.6036 35.6879ZM76.9506 27.4828C76.1027 28.6224 74.6897 29.5546 73.7597 30.4024L73.6652 25.8817C74.8914 26.2577 76.0207 26.8241 76.962 27.4839L76.9506 27.4828ZM73.1706 38.995C71.664 38.9015 70.3444 38.1483 69.2162 37.3004C70.4401 36.6394 71.476 35.6981 71.8532 34.3808V25.5261C72.1381 25.0543 72.7956 25.5261 73.1729 25.6195L73.1706 38.995ZM74.1962 23.2651C71.37 25.6207 68.2635 27.1398 65.5307 29.6697C64.2111 31.7437 64.2111 34.0036 65.1547 36.2634C66.4732 39.2776 69.77 40.8787 73.068 40.7841C74.8572 40.2201 76.5529 39.3711 78.0594 37.958C78.9073 36.8275 80.9814 35.7904 80.415 33.8121C80.5096 31.4577 78.4366 29.5728 76.4583 28.8207C77.5888 27.5945 79.3779 26.0879 80.5096 24.946L80.2269 24.6634L79.2013 25.6059C77.4919 24.9449 75.8099 24.2874 74.2076 23.2503L74.1962 23.2651ZM102.079 30.8959L101.984 38.8092C101.042 38.9027 100.29 37.8668 99.3471 37.4896V30.709C99.6286 30.3329 100.099 29.9569 100.571 29.7665C101.232 29.7665 101.797 30.4252 102.079 30.897V30.8959ZM97.5579 24.856C96.9927 24.7614 96.5323 24.1039 95.8485 24.2908C96.4036 24.7782 96.7702 25.4448 96.8844 26.1745V37.0075L96.5083 38.326L100.463 40.6804C101.593 39.3619 103.195 38.5129 104.514 37.6662C104.325 35.5944 104.421 32.3899 104.514 30.3192C104.138 29.2936 103.101 28.1517 102.064 27.9648L99.3323 30.1301C99.0474 29.5637 99.4268 28.717 99.3323 27.9648C99.4268 26.5517 98.6713 24.0902 100.556 23.4429C99.4166 23.2549 98.2964 23.9147 97.5442 24.856H97.5579ZM92.0936 39.0805C91.0679 38.7044 90.3044 38.0548 89.3631 37.5716L89.4577 29.566L92.0936 30.9791V39.0805ZM83.1648 24.7706C82.6007 24.676 82.1392 24.1096 81.6571 24.1096C81.7517 24.4857 82.1278 24.8617 82.2212 25.3335L82.317 37.6731L81.7517 38.8035L84.3899 40.6873L86.7443 38.6155C88.0628 39.0873 89.2856 40.1243 90.6987 40.7807C91.8292 39.6411 93.1488 38.5198 94.6554 37.9545C94.4658 35.2578 94.4658 32.551 94.6554 29.8543L90.9825 27.8828C89.7585 29.2013 88.3443 30.048 86.8377 30.709L87.0269 38.1505C86.5563 38.4332 86.0833 38.8115 85.6138 38.905C84.105 38.7158 84.5882 37.2092 84.4822 36.4548L84.5768 26.6577C84.6702 25.3392 84.3887 24.3033 85.6024 23.4669C84.7546 23.4669 83.7175 23.9375 83.1523 24.7854L83.1648 24.7706ZM111.423 32.0241L108.882 33.8132L108.976 29.5739C109.927 30.2438 110.755 31.0727 111.425 32.0241H111.423ZM113.778 30.8936L110.587 27.7859C109.174 28.7284 107.95 29.9534 106.442 30.6121L106.536 32.0252C106.348 33.8144 106.821 36.4525 106.16 38.1471C107.384 39.1728 108.891 39.9363 110.304 40.6907C111.528 39.4656 112.941 38.4297 113.978 37.2058C113.884 37.1112 113.978 36.9232 113.788 37.0166L111.81 38.5232C110.784 38.8058 109.831 37.9591 108.983 37.2993L108.89 34.4731L113.778 30.8936ZM22.6101 38.5232L20.0666 37.1101C19.8774 34.4719 19.972 31.2697 20.16 28.905L22.797 30.3181L22.6101 38.5232ZM21.7623 27.2184C20.4438 28.4446 18.7481 29.2925 17.523 30.1392C17.6176 32.399 17.6176 34.66 17.4295 37.0144L17.0535 37.6753L21.0079 40.1255C22.421 38.9938 23.7395 38.0514 25.2472 37.2993C25.1526 34.8491 25.0591 31.4588 25.4352 29.199L21.7623 27.2184ZM53.0351 27.8794C52.471 27.5033 51.9046 28.5381 51.2459 28.8218C50.6807 29.3871 51.7177 29.7631 51.9069 30.3284L51.7188 37.3938C51.6242 37.8656 51.247 38.2417 51.1536 38.5243L53.508 40.4069L55.1103 38.9938C55.1103 38.4297 54.1678 38.1471 53.9798 37.5807L54.2624 30.4241C54.7342 30.1426 55.2048 29.4816 55.9581 29.4816C56.4288 29.5762 56.9838 30.1426 57.0886 30.6121C57.1832 32.8731 57.0886 35.9819 56.9006 38.5243C57.1832 39.4668 57.9262 40.1266 58.6897 40.5027C59.7154 39.8417 60.7638 38.9015 61.5159 38.1483C61.3279 38.0548 61.0453 38.3374 60.8572 38.5243C60.4812 39.1853 59.8316 38.8069 59.4441 38.4297C59.0681 36.1688 59.5376 32.9677 59.4441 30.7067C59.7268 29.9546 59.1615 29.199 58.5974 28.6326C57.1843 26.3728 55.7712 29.5751 54.3581 29.9523C53.9821 29.2913 53.7006 28.4446 53.0396 27.8782L53.0351 27.8794ZM10.9293 24.301C7.63244 25.8076 9.42275 30.236 8.66833 32.5916C8.1031 33.909 6.59655 34.946 5.47747 35.6047C7.17318 35.7939 8.58514 36.5471 9.99938 37.3004L10.3754 27.2207C10.3754 27.0338 10.6581 26.9392 10.7515 27.1261V31.1785C11.694 30.7067 12.6353 30.1529 13.3897 29.2936C13.4831 27.3153 11.8809 25.901 10.9395 24.2999L10.9293 24.301ZM1.3225 23.925C0.570368 25.0555 0.661536 26.1848 1.3225 27.3164H1.41709C1.41709 27.1272 1.3225 27.0338 1.3225 26.9403C0.946435 26.3751 1.22792 25.6207 1.51167 25.1512C3.01822 24.4902 4.80852 24.9631 6.12704 25.2458C4.43132 26.3762 2.82905 28.072 3.11167 30.2372H1.3225C0.851849 30.5187 0.192024 30.8024 0.0985767 31.4611C0.00399031 31.9318 -0.0894574 32.5927 0.381195 32.8742C0.192023 32.4024 0.286609 32.0275 0.475782 31.5557C0.851849 31.2731 1.41823 31.3677 1.88888 31.2731C2.91452 31.4611 3.49001 32.2155 3.11281 33.1568C3.20739 34.0993 2.45412 34.8526 1.88888 35.3221L3.01936 34.946C6.21023 33.7221 4.71508 30.2361 5.28032 27.5044C5.56294 25.5261 7.54127 24.113 9.15494 23.4532C6.32874 23.5478 3.78517 21.852 1.33732 23.925H1.3225ZM15.8296 27.8816C15.1686 28.8241 14.0404 29.2002 13.1925 30.0469C14.0392 30.8013 15.0763 31.2719 15.9241 31.9318C15.4535 33.534 15.6415 35.5101 15.5481 37.0189C13.5697 37.6799 11.4034 38.2451 9.99027 39.9397C7.3521 38.6212 4.33787 36.4548 1.41823 38.1505C0.757263 38.7158 0.663816 40.0354 1.13561 40.7887C0.664955 40.9779 0.571509 40.0366 0.474643 39.6491C0.192023 38.7055 0.945296 37.8599 1.41709 37.0109C2.83019 34.9392 6.12704 36.5403 6.5031 33.4326C6.69228 31.4543 6.22048 29.0999 6.97375 27.215C8.48144 24.9552 10.7424 24.1073 12.8142 22.5062C13.8398 24.2008 15.2643 25.8965 15.8296 27.8623V27.8816ZM70.4355 9.66522L67.7974 11.6436L67.9854 7.31081L70.4355 9.66522ZM45.8511 14.1871L45.5684 14.5632C43.7793 12.4914 43.214 9.19342 44.2488 6.93361L46.1337 5.52051C46.3217 8.71137 46.4163 11.0783 45.8511 14.186V14.1871ZM50.0903 16.5415C49.149 16.5415 47.9251 16.0709 46.9827 15.5991C46.7001 15.223 46.2305 15.223 45.8522 14.847C50.1849 12.3022 47.924 7.9695 48.6784 4.10855L49.9969 4.29544L50.0903 16.5415ZM56.4949 1.94104L55.6482 0.998592C55.3655 5.23789 55.3655 10.325 55.3655 15.2207L55.1775 15.5034C53.7644 16.3512 51.9866 17.1991 50.4676 16.529C50.6556 12.3843 50.373 8.80596 50.5621 4.37749C51.41 4.47208 52.4459 4.47208 53.2937 4.28291L55.165 0.998592L54.9769 0.904005C54.6943 0.809418 54.6943 1.37466 54.5063 1.56497C53.1866 2.97807 50.8322 2.03562 49.23 2.03562C46.7798 1.94104 43.7656 0.717111 42.1645 3.35527C41.9764 4.20313 41.7884 5.42934 42.7297 6.08689C42.6351 5.61623 42.1645 5.33247 42.3536 4.76723C42.4482 4.29658 42.8243 3.7416 43.2961 3.82479C44.7092 3.6379 46.781 3.82479 48.1006 4.20086C46.1223 5.33133 43.9548 6.36836 42.1656 7.87491C41.0351 9.94669 41.0351 11.925 41.9776 14.0914C43.4841 17.2002 46.8755 18.6122 50.3604 18.5176L54.6932 16.2578L56.765 17.9535C57.6128 18.6145 58.3661 17.1056 58.9325 16.635L57.802 15.5045L57.8954 8.43901C58.4607 7.87377 59.0259 7.30853 59.7803 7.30853C60.251 7.40312 60.7228 7.87377 60.7228 8.33417V16.6338L61.288 17.6595C62.8903 19.4486 64.0196 16.4344 65.5273 16.341L68.9199 18.5062C70.1438 17.3666 71.6504 16.1529 72.6885 15.1159C72.0276 14.9279 71.6629 15.8703 71.0863 16.2464C70.3341 16.6224 69.8623 16.529 69.2025 16.0583C67.2242 15.68 67.7894 13.7028 67.7894 12.2897L72.6897 8.80482C71.664 7.67434 70.5222 6.63731 69.3917 5.696C68.1677 6.72164 66.8481 7.77007 65.4373 8.42761V15.6789L65.1547 15.9638C64.5894 16.5279 63.7416 17.1034 63.1763 16.1518C63.0817 13.8908 62.9883 10.2179 63.1763 8.05155L62.9883 7.29713C62.5176 6.545 61.7632 5.696 60.8208 5.60256C59.7951 6.26124 58.8436 7.20369 57.9 7.76779C58.088 5.31766 57.1479 2.1154 58.9256 0.419678C57.786 0.419678 56.9473 0.984917 56.4755 1.92622L56.4949 1.94104Z" fill="black"/>
</svg>
